<svg xmlns="http://www.w3.org/2000/svg" viewBox="0 0 1024 1024" width="1024" height="1024">
  <defs>
    <linearGradient id="bg" x1="0%" y1="0%" x2="100%" y2="100%">
      <stop offset="0%" stop-color="#021B2A"/>
      <stop offset="100%" stop-color="#053B5A"/>
    </linearGradient>
    <filter id="shadow" x="-20%" y="-20%" width="140%" height="140%">
      <feDropShadow dx="0" dy="20" stdDeviation="30" flood-color="#000000" flood-opacity="0.6"/>
    </filter>
  </defs>

  <!-- Modern App Store Background -->
  <rect width="1024" height="1024" rx="200" fill="url(#bg)"/>

  <g transform="translate(512, 480) scale(7) translate(-64, -64)" filter="url(#shadow)">
    <!-- Official Go Gopher - Exact Path Implementation -->
    
    <!-- Body & Ears (Fills) -->
    <path fill="#6AD7E5" d="M62.8 4c13.6 0 26.3 1.9 33 15 6 14.6 3.8 30.4 4.8 45.9.8 13.3 2.5 28.6-3.6 40.9-6.5 12.9-22.7 16.2-36 15.7-10.5-.4-23.1-3.8-29.1-13.4-6.9-11.2-3.7-27.9-3.2-40.4.6-14.8-4-29.7.9-44.1C34.5 8.5 48.1 5.1 62.8 4" />
    <path fill="#6AD7E5" d="M29.3 26.4c-13.6-3.8-3.5-21.1 7.4-14l-7.4 14z" />
    <path fill="#6AD7E5" d="M89.6 11.1c10.7-7.5 20.5 9.5 8 13.8l-8-13.8z" />

    <!-- Eyes (White Fills) -->
    <path fill="#FFFFFF" d="M37.5 24.5c3.2 12.3 22.9 9.2 22.2-3.2-.9-14.8-25.3-12-22.2 3.2" />
    <path fill="#FFFFFF" d="M65.2 22.2c2.4 14.2 25.6 10.4 22.3-3.9-3-12.8-23.1-9.2-22.3 3.9" />
    
    <!-- Pupils (Black) -->
    <path fill="#000000" d="M46.3 22.5c0 2-1.5 3.6-3.3 3.6-1.8 0-3.3-1.6-3.3-3.6s1.5-3.6 3.3-3.6c1.8 0 3.3 1.6 3.3 3.6" />
    <path fill="#000000" d="M74.2 21.6c0 2-1.5 3.6-3.3 3.6-1.8 0-3.3-1.6-3.3-3.6s1.5-3.6 3.3-3.6c1.8 0 3.3 1.6 3.3 3.6" />

    <!-- Snout / Muzzle (Exact Path) -->
    <path fill="#F6D2A2" d="M58.9 32.2c-2.7.2-4.9 3.5-3.5 6 1.9 3.4 6-.3 8.6 0 3 .1 5.4 3.2 7.8.6 2.7-2.9-1.2-5.7-4.1-7l-8.8.4z" />
    
    <!-- Nose Detail (Exact Path) -->
    <path fill="#231F20" d="M58.6 32.1c-.2-4.7 8.8-5.3 9.8-1.4 1.1 4-9.4 4.9-9.8 1.4" />

    <!-- Teeth (Exact Paths & Positioning) -->
    <path fill="#FFFFFF" d="M58.4 39c-1.5 3.5.8 10.6 4.8 5.4-.3-2.2.1-4.4.2-6.6l-5 1.2z" />
    <path fill="#FFFFFF" d="M68 39.2c0 1.8.4 3.9.1 5.9-.5.9-1.4 1-2.2 1.3-1.1-.2-2-.9-2.5-1.9-.3-2.2.1-4.4.2-6.6l4.4 1.3z" />

    <!-- Feature Outlines (Black) to ensure precise look -->
    <path fill="none" stroke="#231F20" stroke-width="0.5" d="M63.3 121.9h-2.5c-4.1-.1-10.3-.8-16.4-3.3-5.9-2.4-10.2-5.8-13-10.3-5.6-9.1-4.6-21.6-3.7-32.7.2-2.8.4-5.4.5-7.9.2-5.2-.2-10.6-.7-15.7-.8-9.4-1.6-19.1 1.5-28.5 2.4-7 6.7-12 13.2-15.2 5.1-2.5 11.4-3.9 20.4-4.6C76 3.6 89.3 5.5 96 18.8c4.4 10.7 4.4 22.2 4.5 33.3 0 4.2 0 8.5.3 12.7.1 1.3.2 2.6.2 3.9.8 12.2 1.7 26-3.9 37.2-2.8 5.7-7.7 9.9-14.4 12.6-5.4 2.2-12.2 3.4-19.4 3.4z" />
    <path fill="none" stroke="#231F20" stroke-width="0.5" d="M69.7 40.2c-.9 0-1.8-.4-2.7-.8-.9-.4-1.9-.8-3-.8h-.3c-.8 0-1.7.3-2.7.7-1.1.4-2.2.7-3.2.7-1.2 0-2.1-.5-2.7-1.6-.7-1.2-.6-2.6.1-3.9.8-1.5 2.2-2.4 3.7-2.6l8.9-.4h.1c2.2.9 4.7 2.6 5.2 4.6.2 1-.1 2-.9 2.9-.8.9-1.6 1.2-2.5 1.2z" />

    <!-- Modern News Element "Holding" -->
    <rect x="25" y="70" width="80" height="55" rx="8" fill="#FFFFFF" />
    <rect x="35" y="82" width="60" height="4" rx="2" fill="#00ADD8" />
    <rect x="35" y="92" width="45" height="3" rx="1.5" fill="#053B5A" opacity="0.6" />
    <rect x="35" y="102" width="55" height="3" rx="1.5" fill="#053B5A" opacity="0.6" />
    <rect x="35" y="112" width="35" height="3" rx="1.5" fill="#00ADD8" />
  </g>
</svg>